<svg xmlns="http://www.w3.org/2000/svg" viewBox="0 0 700 236" role="img" width="100%">
<title>Instant lead capture &amp; response workflow</title>
<defs>
<marker id="arrow" viewBox="0 0 10 10" refX="8" refY="5" markerWidth="6" markerHeight="6" orient="auto-start-reverse">
<path d="M2 1L8 5L2 9" fill="none" stroke="rgba(255,255,255,0.55)" stroke-width="1.5" stroke-linecap="round" stroke-linejoin="round"/>
</marker>
</defs>
<g font-family="Inter, -apple-system, BlinkMacSystemFont, Segoe UI, sans-serif"><rect x="30" y="30" width="300" height="72" rx="10" fill="rgba(26,17,40,0.55)" stroke="rgba(255,255,255,0.2)" stroke-width="1"/><rect x="30" y="30" width="4" height="72" rx="2" fill="#9CA3AF"/><text x="48" y="58" fill="#FFFFFF" font-size="14" font-weight="600">Form submitted</text><text x="48" y="80" fill="#D8D4E8" font-size="12" font-weight="400">Routes by form type</text></g>
<g font-family="Inter, -apple-system, BlinkMacSystemFont, Segoe UI, sans-serif"><rect x="370" y="30" width="300" height="72" rx="10" fill="rgba(26,17,40,0.55)" stroke="rgba(255,255,255,0.2)" stroke-width="1"/><rect x="370" y="30" width="4" height="72" rx="2" fill="#5EEAD4"/><text x="388" y="58" fill="#FFFFFF" font-size="14" font-weight="600">Estimate track</text><text x="388" y="80" fill="#D8D4E8" font-size="12" font-weight="400">Scores, logs, sends quote</text></g>
<g font-family="Inter, -apple-system, BlinkMacSystemFont, Segoe UI, sans-serif"><rect x="370" y="134" width="300" height="72" rx="10" fill="rgba(26,17,40,0.55)" stroke="rgba(255,255,255,0.2)" stroke-width="1"/><rect x="370" y="134" width="4" height="72" rx="2" fill="#5EEAD4"/><text x="388" y="162" fill="#FFFFFF" font-size="14" font-weight="600">Contact track</text><text x="388" y="184" fill="#D8D4E8" font-size="12" font-weight="400">Sends instant acknowledgment</text></g>
<g font-family="Inter, -apple-system, BlinkMacSystemFont, Segoe UI, sans-serif"><rect x="30" y="134" width="300" height="72" rx="10" fill="rgba(26,17,40,0.55)" stroke="rgba(255,255,255,0.2)" stroke-width="1"/><rect x="30" y="134" width="4" height="72" rx="2" fill="#5EEAD4"/><text x="48" y="162" fill="#FFFFFF" font-size="14" font-weight="600">Alert crew</text><text x="48" y="184" fill="#D8D4E8" font-size="12" font-weight="400">Notifies the crew</text></g>
<line x1="330" y1="66.0" x2="370" y2="66.0" stroke="rgba(255,255,255,0.55)" stroke-width="1.5" marker-end="url(#arrow)"/>
<path d="M 520.0 102 L 520.0 118.0 L 520.0 118.0 L 520.0 134" fill="none" stroke="rgba(255,255,255,0.55)" stroke-width="1.5" marker-end="url(#arrow)"/>
<line x1="370" y1="170.0" x2="330" y2="170.0" stroke="rgba(255,255,255,0.55)" stroke-width="1.5" marker-end="url(#arrow)"/>
</svg>